<mxfile host="app.diagrams.net" modified="2024-04-07T05:58:07.754Z" agent="Mozilla/5.0 (Windows NT 10.0; Win64; x64) AppleWebKit/537.36 (KHTML, like Gecko) Chrome/123.0.0.0 Safari/537.36" etag="T5X2uPVUak_zZxgtpUMp" version="24.2.2" type="github">
  <diagram name="Page-1" id="wSSwC0zg2OUpwuaPWAzC">
    <mxGraphModel dx="1105" dy="635" grid="0" gridSize="10" guides="1" tooltips="1" connect="1" arrows="1" fold="1" page="1" pageScale="1" pageWidth="850" pageHeight="1100" math="0" shadow="0">
      <root>
        <mxCell id="0" />
        <mxCell id="1" parent="0" />
        <mxCell id="ZQA7P4YnI3V8Iu-dlBC1-33" value="User Table" style="swimlane;fontStyle=0;childLayout=stackLayout;horizontal=1;startSize=26;fillColor=none;horizontalStack=0;resizeParent=1;resizeParentMax=0;resizeLast=0;collapsible=1;marginBottom=0;whiteSpace=wrap;html=1;strokeColor=default;" vertex="1" parent="1">
          <mxGeometry x="52" y="63" width="140" height="182" as="geometry" />
        </mxCell>
        <mxCell id="ZQA7P4YnI3V8Iu-dlBC1-61" value="+ userId : Mongo ID" style="text;strokeColor=default;fillColor=none;align=left;verticalAlign=top;spacingLeft=4;spacingRight=4;overflow=hidden;rotatable=0;points=[[0,0.5],[1,0.5]];portConstraint=eastwest;whiteSpace=wrap;html=1;" vertex="1" parent="ZQA7P4YnI3V8Iu-dlBC1-33">
          <mxGeometry y="26" width="140" height="26" as="geometry" />
        </mxCell>
        <mxCell id="ZQA7P4YnI3V8Iu-dlBC1-34" value="+ StaffID:&amp;nbsp; String" style="text;strokeColor=default;fillColor=none;align=left;verticalAlign=top;spacingLeft=4;spacingRight=4;overflow=hidden;rotatable=0;points=[[0,0.5],[1,0.5]];portConstraint=eastwest;whiteSpace=wrap;html=1;" vertex="1" parent="ZQA7P4YnI3V8Iu-dlBC1-33">
          <mxGeometry y="52" width="140" height="26" as="geometry" />
        </mxCell>
        <mxCell id="ZQA7P4YnI3V8Iu-dlBC1-35" value="+ StaffName : String" style="text;strokeColor=default;fillColor=none;align=left;verticalAlign=top;spacingLeft=4;spacingRight=4;overflow=hidden;rotatable=0;points=[[0,0.5],[1,0.5]];portConstraint=eastwest;whiteSpace=wrap;html=1;rounded=0;" vertex="1" parent="ZQA7P4YnI3V8Iu-dlBC1-33">
          <mxGeometry y="78" width="140" height="26" as="geometry" />
        </mxCell>
        <mxCell id="ZQA7P4YnI3V8Iu-dlBC1-36" value="+ roleId : 1" style="text;strokeColor=default;fillColor=none;align=left;verticalAlign=top;spacingLeft=4;spacingRight=4;overflow=hidden;rotatable=0;points=[[0,0.5],[1,0.5]];portConstraint=eastwest;whiteSpace=wrap;html=1;" vertex="1" parent="ZQA7P4YnI3V8Iu-dlBC1-33">
          <mxGeometry y="104" width="140" height="26" as="geometry" />
        </mxCell>
        <mxCell id="ZQA7P4YnI3V8Iu-dlBC1-37" value="+ SubjectIds:Array&amp;nbsp;" style="text;strokeColor=default;fillColor=none;align=left;verticalAlign=top;spacingLeft=4;spacingRight=4;overflow=hidden;rotatable=0;points=[[0,0.5],[1,0.5]];portConstraint=eastwest;whiteSpace=wrap;html=1;" vertex="1" parent="ZQA7P4YnI3V8Iu-dlBC1-33">
          <mxGeometry y="130" width="140" height="26" as="geometry" />
        </mxCell>
        <mxCell id="ZQA7P4YnI3V8Iu-dlBC1-38" value="+ SectionsId : Array" style="text;strokeColor=default;fillColor=none;align=left;verticalAlign=top;spacingLeft=4;spacingRight=4;overflow=hidden;rotatable=0;points=[[0,0.5],[1,0.5]];portConstraint=eastwest;whiteSpace=wrap;html=1;" vertex="1" parent="ZQA7P4YnI3V8Iu-dlBC1-33">
          <mxGeometry y="156" width="140" height="26" as="geometry" />
        </mxCell>
        <mxCell id="ZQA7P4YnI3V8Iu-dlBC1-39" value="Sections Table" style="swimlane;fontStyle=0;childLayout=stackLayout;horizontal=1;startSize=26;fillColor=none;horizontalStack=0;resizeParent=1;resizeParentMax=0;resizeLast=0;collapsible=1;marginBottom=0;whiteSpace=wrap;html=1;strokeColor=default;" vertex="1" parent="1">
          <mxGeometry x="241" y="444" width="140" height="104" as="geometry" />
        </mxCell>
        <mxCell id="ZQA7P4YnI3V8Iu-dlBC1-40" value="+ SectionId : Mongo ID" style="text;strokeColor=default;fillColor=none;align=left;verticalAlign=top;spacingLeft=4;spacingRight=4;overflow=hidden;rotatable=0;points=[[0,0.5],[1,0.5]];portConstraint=eastwest;whiteSpace=wrap;html=1;" vertex="1" parent="ZQA7P4YnI3V8Iu-dlBC1-39">
          <mxGeometry y="26" width="140" height="26" as="geometry" />
        </mxCell>
        <mxCell id="ZQA7P4YnI3V8Iu-dlBC1-41" value="+ SectionName : String" style="text;strokeColor=default;fillColor=none;align=left;verticalAlign=top;spacingLeft=4;spacingRight=4;overflow=hidden;rotatable=0;points=[[0,0.5],[1,0.5]];portConstraint=eastwest;whiteSpace=wrap;html=1;" vertex="1" parent="ZQA7P4YnI3V8Iu-dlBC1-39">
          <mxGeometry y="52" width="140" height="26" as="geometry" />
        </mxCell>
        <mxCell id="ZQA7P4YnI3V8Iu-dlBC1-42" value="+ SectionYear : Number" style="text;strokeColor=default;fillColor=none;align=left;verticalAlign=top;spacingLeft=4;spacingRight=4;overflow=hidden;rotatable=0;points=[[0,0.5],[1,0.5]];portConstraint=eastwest;whiteSpace=wrap;html=1;" vertex="1" parent="ZQA7P4YnI3V8Iu-dlBC1-39">
          <mxGeometry y="78" width="140" height="26" as="geometry" />
        </mxCell>
        <mxCell id="ZQA7P4YnI3V8Iu-dlBC1-47" value="" style="endArrow=classic;startArrow=classic;html=1;rounded=0;exitX=0.5;exitY=0;exitDx=0;exitDy=0;" edge="1" parent="1" source="ZQA7P4YnI3V8Iu-dlBC1-39" target="ZQA7P4YnI3V8Iu-dlBC1-38">
          <mxGeometry width="50" height="50" relative="1" as="geometry">
            <mxPoint x="309" y="370" as="sourcePoint" />
            <mxPoint x="359" y="320" as="targetPoint" />
          </mxGeometry>
        </mxCell>
        <mxCell id="ZQA7P4YnI3V8Iu-dlBC1-48" value="Subject Table" style="swimlane;fontStyle=0;childLayout=stackLayout;horizontal=1;startSize=26;fillColor=none;horizontalStack=0;resizeParent=1;resizeParentMax=0;resizeLast=0;collapsible=1;marginBottom=0;whiteSpace=wrap;html=1;strokeColor=default;" vertex="1" parent="1">
          <mxGeometry x="434" y="271" width="140" height="130" as="geometry" />
        </mxCell>
        <mxCell id="ZQA7P4YnI3V8Iu-dlBC1-49" value="+ SubjectId : Mongo ID" style="text;strokeColor=default;fillColor=none;align=left;verticalAlign=top;spacingLeft=4;spacingRight=4;overflow=hidden;rotatable=0;points=[[0,0.5],[1,0.5]];portConstraint=eastwest;whiteSpace=wrap;html=1;" vertex="1" parent="ZQA7P4YnI3V8Iu-dlBC1-48">
          <mxGeometry y="26" width="140" height="26" as="geometry" />
        </mxCell>
        <mxCell id="ZQA7P4YnI3V8Iu-dlBC1-50" value="+ SubjectName : String" style="text;strokeColor=default;fillColor=none;align=left;verticalAlign=top;spacingLeft=4;spacingRight=4;overflow=hidden;rotatable=0;points=[[0,0.5],[1,0.5]];portConstraint=eastwest;whiteSpace=wrap;html=1;" vertex="1" parent="ZQA7P4YnI3V8Iu-dlBC1-48">
          <mxGeometry y="52" width="140" height="26" as="geometry" />
        </mxCell>
        <mxCell id="ZQA7P4YnI3V8Iu-dlBC1-51" value="+ SectionsId : Array" style="text;strokeColor=default;fillColor=none;align=left;verticalAlign=top;spacingLeft=4;spacingRight=4;overflow=hidden;rotatable=0;points=[[0,0.5],[1,0.5]];portConstraint=eastwest;whiteSpace=wrap;html=1;" vertex="1" parent="ZQA7P4YnI3V8Iu-dlBC1-48">
          <mxGeometry y="78" width="140" height="26" as="geometry" />
        </mxCell>
        <mxCell id="ZQA7P4YnI3V8Iu-dlBC1-62" value="+ SubjectCode : String" style="text;strokeColor=default;fillColor=none;align=left;verticalAlign=top;spacingLeft=4;spacingRight=4;overflow=hidden;rotatable=0;points=[[0,0.5],[1,0.5]];portConstraint=eastwest;whiteSpace=wrap;html=1;" vertex="1" parent="ZQA7P4YnI3V8Iu-dlBC1-48">
          <mxGeometry y="104" width="140" height="26" as="geometry" />
        </mxCell>
        <mxCell id="ZQA7P4YnI3V8Iu-dlBC1-52" value="" style="endArrow=classic;startArrow=classic;html=1;rounded=0;exitX=0.5;exitY=0;exitDx=0;exitDy=0;entryX=1;entryY=0.5;entryDx=0;entryDy=0;" edge="1" parent="1" source="ZQA7P4YnI3V8Iu-dlBC1-48" target="ZQA7P4YnI3V8Iu-dlBC1-37">
          <mxGeometry width="50" height="50" relative="1" as="geometry">
            <mxPoint x="400" y="227" as="sourcePoint" />
            <mxPoint x="185" y="180" as="targetPoint" />
          </mxGeometry>
        </mxCell>
        <mxCell id="ZQA7P4YnI3V8Iu-dlBC1-53" value="" style="endArrow=classic;startArrow=classic;html=1;rounded=0;entryX=0.5;entryY=0;entryDx=0;entryDy=0;" edge="1" parent="1" target="ZQA7P4YnI3V8Iu-dlBC1-39">
          <mxGeometry width="50" height="50" relative="1" as="geometry">
            <mxPoint x="433" y="362" as="sourcePoint" />
            <mxPoint x="304" y="590" as="targetPoint" />
          </mxGeometry>
        </mxCell>
        <mxCell id="ZQA7P4YnI3V8Iu-dlBC1-55" value="Bokkings Table" style="swimlane;fontStyle=0;childLayout=stackLayout;horizontal=1;startSize=26;fillColor=none;horizontalStack=0;resizeParent=1;resizeParentMax=0;resizeLast=0;collapsible=1;marginBottom=0;whiteSpace=wrap;html=1;" vertex="1" parent="1">
          <mxGeometry x="374" y="27" width="140" height="104" as="geometry" />
        </mxCell>
        <mxCell id="ZQA7P4YnI3V8Iu-dlBC1-56" value="+ BokkingId : Mongo ID" style="text;strokeColor=default;fillColor=none;align=left;verticalAlign=top;spacingLeft=4;spacingRight=4;overflow=hidden;rotatable=0;points=[[0,0.5],[1,0.5]];portConstraint=eastwest;whiteSpace=wrap;html=1;" vertex="1" parent="ZQA7P4YnI3V8Iu-dlBC1-55">
          <mxGeometry y="26" width="140" height="26" as="geometry" />
        </mxCell>
        <mxCell id="ZQA7P4YnI3V8Iu-dlBC1-63" value="+ userId : Mongo ID" style="text;strokeColor=default;fillColor=none;align=left;verticalAlign=top;spacingLeft=4;spacingRight=4;overflow=hidden;rotatable=0;points=[[0,0.5],[1,0.5]];portConstraint=eastwest;whiteSpace=wrap;html=1;" vertex="1" parent="ZQA7P4YnI3V8Iu-dlBC1-55">
          <mxGeometry y="52" width="140" height="26" as="geometry" />
        </mxCell>
        <mxCell id="ZQA7P4YnI3V8Iu-dlBC1-64" value="+ periodId : Mongo ID" style="text;strokeColor=default;fillColor=none;align=left;verticalAlign=top;spacingLeft=4;spacingRight=4;overflow=hidden;rotatable=0;points=[[0,0.5],[1,0.5]];portConstraint=eastwest;whiteSpace=wrap;html=1;" vertex="1" parent="ZQA7P4YnI3V8Iu-dlBC1-55">
          <mxGeometry y="78" width="140" height="26" as="geometry" />
        </mxCell>
        <mxCell id="ZQA7P4YnI3V8Iu-dlBC1-66" value="Slots Table" style="swimlane;fontStyle=0;childLayout=stackLayout;horizontal=1;startSize=26;fillColor=none;horizontalStack=0;resizeParent=1;resizeParentMax=0;resizeLast=0;collapsible=1;marginBottom=0;whiteSpace=wrap;html=1;strokeColor=default;" vertex="1" parent="1">
          <mxGeometry x="873" y="363" width="183" height="104" as="geometry" />
        </mxCell>
        <mxCell id="ZQA7P4YnI3V8Iu-dlBC1-67" value="+ slotId : mongo ID" style="text;strokeColor=default;fillColor=none;align=left;verticalAlign=top;spacingLeft=4;spacingRight=4;overflow=hidden;rotatable=0;points=[[0,0.5],[1,0.5]];portConstraint=eastwest;whiteSpace=wrap;html=1;" vertex="1" parent="ZQA7P4YnI3V8Iu-dlBC1-66">
          <mxGeometry y="26" width="183" height="26" as="geometry" />
        </mxCell>
        <mxCell id="ZQA7P4YnI3V8Iu-dlBC1-68" value="+ slotStartTime : TimeStamp" style="text;strokeColor=default;fillColor=none;align=left;verticalAlign=top;spacingLeft=4;spacingRight=4;overflow=hidden;rotatable=0;points=[[0,0.5],[1,0.5]];portConstraint=eastwest;whiteSpace=wrap;html=1;" vertex="1" parent="ZQA7P4YnI3V8Iu-dlBC1-66">
          <mxGeometry y="52" width="183" height="26" as="geometry" />
        </mxCell>
        <mxCell id="ZQA7P4YnI3V8Iu-dlBC1-71" value="+ slotStopTime : TimeStamp" style="text;strokeColor=default;fillColor=none;align=left;verticalAlign=top;spacingLeft=4;spacingRight=4;overflow=hidden;rotatable=0;points=[[0,0.5],[1,0.5]];portConstraint=eastwest;whiteSpace=wrap;html=1;" vertex="1" parent="ZQA7P4YnI3V8Iu-dlBC1-66">
          <mxGeometry y="78" width="183" height="26" as="geometry" />
        </mxCell>
        <mxCell id="ZQA7P4YnI3V8Iu-dlBC1-73" value="Period" style="swimlane;fontStyle=0;childLayout=stackLayout;horizontal=1;startSize=26;fillColor=none;horizontalStack=0;resizeParent=1;resizeParentMax=0;resizeLast=0;collapsible=1;marginBottom=0;whiteSpace=wrap;html=1;" vertex="1" parent="1">
          <mxGeometry x="610" y="199" width="183" height="130" as="geometry" />
        </mxCell>
        <mxCell id="ZQA7P4YnI3V8Iu-dlBC1-74" value="+ PeriodId: mongo ID" style="text;strokeColor=default;fillColor=none;align=left;verticalAlign=top;spacingLeft=4;spacingRight=4;overflow=hidden;rotatable=0;points=[[0,0.5],[1,0.5]];portConstraint=eastwest;whiteSpace=wrap;html=1;" vertex="1" parent="ZQA7P4YnI3V8Iu-dlBC1-73">
          <mxGeometry y="26" width="183" height="26" as="geometry" />
        </mxCell>
        <mxCell id="ZQA7P4YnI3V8Iu-dlBC1-75" value="+ slotId : mongo ID" style="text;strokeColor=default;fillColor=none;align=left;verticalAlign=top;spacingLeft=4;spacingRight=4;overflow=hidden;rotatable=0;points=[[0,0.5],[1,0.5]];portConstraint=eastwest;whiteSpace=wrap;html=1;" vertex="1" parent="ZQA7P4YnI3V8Iu-dlBC1-73">
          <mxGeometry y="52" width="183" height="26" as="geometry" />
        </mxCell>
        <mxCell id="ZQA7P4YnI3V8Iu-dlBC1-76" value="+ sectionId : mongo ID" style="text;strokeColor=default;fillColor=none;align=left;verticalAlign=top;spacingLeft=4;spacingRight=4;overflow=hidden;rotatable=0;points=[[0,0.5],[1,0.5]];portConstraint=eastwest;whiteSpace=wrap;html=1;" vertex="1" parent="ZQA7P4YnI3V8Iu-dlBC1-73">
          <mxGeometry y="78" width="183" height="26" as="geometry" />
        </mxCell>
        <mxCell id="ZQA7P4YnI3V8Iu-dlBC1-77" value="+ subjectId : mongo ID" style="text;strokeColor=default;fillColor=none;align=left;verticalAlign=top;spacingLeft=4;spacingRight=4;overflow=hidden;rotatable=0;points=[[0,0.5],[1,0.5]];portConstraint=eastwest;whiteSpace=wrap;html=1;" vertex="1" parent="ZQA7P4YnI3V8Iu-dlBC1-73">
          <mxGeometry y="104" width="183" height="26" as="geometry" />
        </mxCell>
        <mxCell id="ZQA7P4YnI3V8Iu-dlBC1-78" value="" style="endArrow=classic;startArrow=classic;html=1;rounded=0;exitX=-0.022;exitY=0.127;exitDx=0;exitDy=0;entryX=1;entryY=0.423;entryDx=0;entryDy=0;exitPerimeter=0;entryPerimeter=0;" edge="1" parent="1" source="ZQA7P4YnI3V8Iu-dlBC1-55" target="ZQA7P4YnI3V8Iu-dlBC1-61">
          <mxGeometry width="50" height="50" relative="1" as="geometry">
            <mxPoint x="514" y="169" as="sourcePoint" />
            <mxPoint x="202" y="104" as="targetPoint" />
          </mxGeometry>
        </mxCell>
        <mxCell id="ZQA7P4YnI3V8Iu-dlBC1-85" value="" style="endArrow=classic;startArrow=classic;html=1;rounded=0;exitX=0.5;exitY=0;exitDx=0;exitDy=0;entryX=1;entryY=0.5;entryDx=0;entryDy=0;" edge="1" parent="1" source="ZQA7P4YnI3V8Iu-dlBC1-73" target="ZQA7P4YnI3V8Iu-dlBC1-64">
          <mxGeometry width="50" height="50" relative="1" as="geometry">
            <mxPoint x="731" y="27" as="sourcePoint" />
            <mxPoint x="552" y="87" as="targetPoint" />
          </mxGeometry>
        </mxCell>
        <mxCell id="ZQA7P4YnI3V8Iu-dlBC1-86" value="" style="endArrow=classic;startArrow=classic;html=1;rounded=0;exitX=0.5;exitY=0;exitDx=0;exitDy=0;entryX=1;entryY=0.5;entryDx=0;entryDy=0;" edge="1" parent="1" source="ZQA7P4YnI3V8Iu-dlBC1-66" target="ZQA7P4YnI3V8Iu-dlBC1-75">
          <mxGeometry width="50" height="50" relative="1" as="geometry">
            <mxPoint x="1050" y="251" as="sourcePoint" />
            <mxPoint x="862" y="170" as="targetPoint" />
          </mxGeometry>
        </mxCell>
      </root>
    </mxGraphModel>
  </diagram>
</mxfile>
